<?xml version="1.0" standalone="no"?>
<!DOCTYPE svg PUBLIC "-//W3C//DTD SVG 20010904//EN"
 "http://www.w3.org/TR/2001/REC-SVG-20010904/DTD/svg10.dtd">
<svg version="1.0" xmlns="http://www.w3.org/2000/svg"
 width="1003.000000pt" height="652.000000pt" viewBox="0 0 1003.000000 652.000000"
 preserveAspectRatio="xMidYMid meet">

<g transform="translate(0.000000,652.000000) scale(0.100000,-0.100000)"
fill="#000000" stroke="none">
<path d="M3400 3255 c0 -1233 2 -1395 15 -1395 13 0 15 162 15 1395 0 1233 -2
1395 -15 1395 -13 0 -15 -162 -15 -1395z"/>
<path d="M2663 4342 c-104 -37 -173 -116 -195 -224 l-12 -58 -593 0 -593 0 0
-27 c1 -95 58 -216 130 -273 52 -41 135 -77 197 -85 l52 -7 6 -56 c9 -86 51
-213 85 -260 42 -58 74 -76 148 -82 l63 -5 -1 -368 c0 -303 -3 -374 -15 -397
-19 -37 -90 -64 -209 -79 -101 -14 -124 -23 -135 -54 -9 -24 3 -67 22 -79 7
-4 190 -8 408 -8 434 0 429 -1 432 59 3 48 -29 68 -133 81 -114 15 -179 39
-204 73 -20 27 -21 42 -24 403 l-3 374 57 0 c70 0 132 32 162 84 35 60 72 174
78 247 7 66 8 69 33 69 93 1 219 69 281 153 l35 47 3 -56 3 -56 52 7 c73 10
125 35 174 84 76 76 104 207 67 314 -48 142 -229 230 -371 179z m126 -99 c-11
-38 -24 -85 -30 -106 l-10 -39 -79 78 c-75 73 -78 78 -60 91 40 28 87 42 142
43 l57 0 -20 -67z m101 32 c15 -8 42 -32 59 -52 37 -45 39 -43 -82 -104 -64
-33 -78 -37 -73 -22 2 10 14 52 26 93 27 97 28 100 35 100 3 0 19 -7 35 -15z
m-245 -135 l80 -80 -108 0 -107 0 0 30 c0 38 38 130 54 130 1 0 37 -36 81 -80z
m360 -46 c3 -20 3 -55 0 -78 -7 -41 -43 -116 -55 -116 -9 0 -130 128 -130 138
0 7 155 90 171 91 4 1 10 -15 14 -35z m-280 -106 c-21 -102 -85 -187 -178
-236 l-52 -27 -465 0 c-526 0 -522 -1 -608 79 -48 44 -102 143 -102 187 l0 27
706 1 706 2 -7 -33z m190 -129 c-6 -9 -64 -36 -97 -44 l-28 -7 0 93 0 93 65
-64 c35 -35 62 -67 60 -71z m-570 -255 c-13 -120 -59 -232 -112 -274 -24 -18
-40 -20 -212 -20 l-187 0 -36 38 c-20 20 -43 51 -51 67 -19 39 -43 134 -50
203 l-6 52 331 0 330 0 -7 -66z m-305 -687 c0 -228 3 -362 11 -390 14 -52 72
-111 123 -125 21 -6 73 -16 115 -23 121 -18 123 -18 119 -37 -3 -16 -34 -17
-386 -20 -344 -2 -383 -1 -389 14 -9 23 10 31 89 38 151 15 236 55 264 122 11
26 14 110 14 404 0 369 0 371 21 368 20 -3 20 -7 19 -351z"/>
<path d="M4428 3618 c-24 -20 -69 -92 -151 -243 -70 -128 -177 -346 -177 -360
0 -3 9 -5 19 -5 11 0 47 33 89 83 69 81 182 196 182 186 0 -3 -20 -44 -45 -92
-45 -89 -56 -142 -33 -165 19 -19 87 -14 124 9 19 11 34 16 34 11 0 -16 58
-35 105 -34 73 2 175 64 175 108 0 13 -2 24 -5 24 -4 0 -32 -19 -64 -41 -44
-31 -69 -42 -100 -43 -48 -1 -71 16 -55 42 10 15 102 76 129 85 6 2 5 10 -3
20 -10 12 -20 13 -45 6 -40 -11 -37 -12 -37 5 0 8 21 28 48 46 38 25 48 28 50
16 5 -22 34 -20 61 5 48 45 -1 73 -84 49 -92 -27 -150 -94 -127 -145 10 -21 8
-26 -11 -36 -12 -7 -41 -29 -64 -50 -43 -40 -66 -48 -79 -28 -3 6 19 62 50
126 31 63 56 119 56 124 0 5 -10 13 -22 18 -32 12 -71 -10 -146 -83 l-64 -61
27 55 c32 64 133 233 182 304 18 26 33 54 33 62 0 17 -31 18 -52 2z"/>
<path d="M7268 3583 c-95 -90 -175 -221 -219 -363 -18 -59 -32 -83 -64 -113
-44 -41 -80 -56 -97 -39 -8 8 6 41 50 116 72 125 77 139 57 156 -12 10 -19 10
-37 -3 -48 -32 -69 -58 -58 -71 7 -10 -1 -32 -31 -85 -43 -73 -88 -121 -116
-121 -26 0 -9 75 36 165 23 44 41 84 41 88 0 4 -17 7 -37 6 -21 0 -50 2 -66 6
-19 5 -42 0 -80 -18 -65 -32 -119 -87 -156 -158 -29 -56 -79 -96 -107 -85 -27
10 -11 56 69 199 l74 132 62 7 c33 4 66 10 72 13 18 12 -21 45 -53 45 -34 0
-34 3 -7 41 18 25 18 30 5 35 -25 10 -43 -2 -73 -45 -26 -38 -31 -40 -78 -41
-53 0 -95 -20 -95 -46 0 -10 13 -14 50 -14 28 0 50 -2 50 -5 0 -3 -19 -35 -43
-72 -23 -38 -53 -93 -67 -123 -28 -65 -61 -104 -101 -120 -35 -15 -51 -5 -78
48 l-18 35 59 40 c92 62 145 147 101 164 -11 4 -22 -1 -32 -16 -34 -49 -155
-150 -167 -139 -2 3 46 94 106 203 61 109 108 200 105 203 -3 3 -19 -1 -35 -9
-25 -11 -55 -58 -158 -244 l-128 -230 -55 -28 c-30 -15 -79 -31 -109 -34 -47
-4 -58 -2 -74 15 -14 17 -17 29 -11 59 11 64 154 187 183 158 4 -3 1 -15 -6
-25 -15 -24 -16 -50 -1 -50 18 0 69 58 69 79 0 30 -36 50 -79 44 -139 -22
-253 -168 -217 -281 19 -60 127 -68 249 -17 12 5 17 3 17 -8 0 -19 29 -30 45
-17 7 6 22 33 34 60 12 28 25 50 29 50 5 0 18 -18 31 -40 44 -79 104 -100 170
-59 l33 20 15 -20 c19 -27 78 -28 118 -1 29 19 29 19 48 0 35 -38 84 -24 155
44 42 40 43 40 37 13 -16 -63 51 -100 111 -61 22 15 26 15 42 1 36 -33 89 -26
146 18 39 29 46 32 46 16 0 -43 71 -65 133 -42 42 16 97 71 97 97 0 32 -5 30
-51 -11 -64 -57 -120 -58 -127 -2 -4 29 7 48 60 105 60 65 188 242 219 303 34
68 36 94 10 109 -34 17 -50 11 -103 -37z m56 -35 c-15 -49 -206 -318 -212
-300 -5 16 44 117 89 183 74 109 141 173 123 117z m-608 -317 c-20 -27 -64
-74 -97 -105 -91 -85 -118 -71 -55 28 39 61 97 110 146 124 19 5 37 8 39 6 2
-2 -13 -25 -33 -53z"/>
<path d="M8638 3623 c-31 -8 -209 -298 -272 -443 -38 -89 -104 -146 -120 -104
-7 18 36 131 71 186 33 53 30 62 -16 54 -25 -4 -42 -2 -47 5 -12 19 -86 0
-139 -36 -77 -53 -135 -137 -135 -196 0 -21 -3 -22 -77 -16 -65 4 -240 41
-251 52 -4 4 103 164 173 260 79 107 170 183 192 161 9 -9 -88 -96 -114 -102
-26 -7 -27 -8 -13 -35 20 -37 67 -22 138 45 85 78 81 156 -7 156 -90 0 -200
-100 -337 -307 -52 -78 -100 -146 -107 -150 -6 -4 -49 -6 -94 -4 -45 1 -97 -2
-116 -8 -43 -15 -64 -51 -51 -89 21 -59 145 -62 240 -7 l44 26 87 -26 c106
-31 227 -43 274 -26 22 8 36 8 43 1 28 -28 91 -4 161 62 l31 28 -4 -33 c-7
-63 51 -87 115 -48 31 19 31 19 49 0 24 -27 61 -24 120 11 90 51 174 168 174
242 0 49 -19 61 -85 56 l-55 -5 32 56 c18 31 56 93 85 139 66 102 67 110 11
95z m-422 -402 c-50 -65 -143 -151 -163 -151 -46 0 30 125 111 182 25 19 86
39 95 32 2 -2 -18 -30 -43 -63z m369 59 c21 -34 -52 -142 -131 -193 -44 -30
-64 -29 -64 2 0 24 78 183 87 178 5 -3 22 1 38 8 37 17 62 18 70 5z m-1100
-195 c0 -11 -52 -23 -77 -17 -43 10 -8 31 47 29 17 -1 30 -6 30 -12z"/>
<path d="M4234 3591 c-61 -35 -143 -51 -268 -51 -83 0 -88 1 -83 20 6 24 -10
26 -41 4 -14 -10 -22 -26 -22 -44 0 -26 5 -31 43 -41 44 -12 157 -6 217 11 19
5 35 8 37 6 3 -3 -159 -249 -216 -326 -14 -19 -27 -37 -29 -40 -2 -2 -7 1 -11
9 -10 15 -68 -50 -78 -87 -8 -33 18 -57 53 -48 36 9 72 50 141 158 66 102 207
315 226 339 6 9 36 22 65 28 68 17 101 43 86 68 -18 29 -63 27 -120 -6z"/>
<path d="M5329 3581 c-169 -54 -352 -261 -367 -414 -13 -132 104 -185 249
-112 93 46 143 98 155 159 l7 38 -73 -60 c-127 -107 -230 -141 -265 -88 -54
82 101 309 271 399 78 40 124 48 124 20 0 -23 -105 -123 -129 -123 -11 0 -23
-5 -26 -10 -11 -17 15 -40 45 -40 53 0 172 111 186 173 5 26 2 35 -20 54 -33
28 -78 29 -157 4z"/>
<path d="M7054 3477 c-25 -14 -34 -27 -34 -54 0 -30 24 -29 55 2 40 39 25 77
-21 52z"/>
<path d="M5529 3312 c-87 -56 -148 -150 -149 -229 0 -32 5 -45 22 -57 50 -35
117 -7 200 83 89 95 123 187 78 211 -11 6 -20 7 -20 3 0 -4 -5 -2 -12 5 -20
20 -72 13 -119 -16z m100 -69 c-24 -65 -115 -164 -159 -176 -83 -22 -13 140
89 204 41 27 46 28 62 13 14 -12 16 -22 8 -41z"/>
</g>
</svg>
